<svg xmlns="http://www.w3.org/2000/svg" width="881.857" height="883.94" viewBox="0 0 881.857 883.94">
  <path id="Tracé_116" data-name="Tracé 116"
    d="M1715.273,455.906,1914.8,655.118H1715.273ZM2098.8,693.066a54.488,54.488,0,0,0-13.868-23.3L1699.444,285.623c-.093-.1-.176-.2-.268-.293a55.123,55.123,0,0,0-77.74,0c-.113.116-.207.237-.317.355L1235.7,669.771a54.857,54.857,0,0,0,77.718,77.44L1604.994,456.63V1098.5c.019,30.245,25.017,54.749,55.366,54.73a54.855,54.855,0,0,0,54.913-54.79V764.629H2046.52a54.7,54.7,0,0,0,52.281-71.563"
    transform="translate(-1219.608 -269.292)" fill="#f6f7fb" opacity="0.499" />
</svg>