<svg xmlns="http://www.w3.org/2000/svg" xmlns:xlink="http://www.w3.org/1999/xlink" width="390" height="844" viewBox="0 0 390 844">
  <defs>
    <clipPath id="clip-Loading">
      <rect width="390" height="844"/>
    </clipPath>
  </defs>
  <g id="Loading" clip-path="url(#clip-Loading)">
    <rect width="390" height="844" fill="#3409b7"/>
    <path id="Tracé_116" data-name="Tracé 116" d="M1281.041,292.421l24.729,24.69h-24.729Zm47.534,29.393a6.754,6.754,0,0,0-1.719-2.887l-47.777-47.611-.033-.036a6.832,6.832,0,0,0-9.635,0c-.014.014-.026.029-.039.044l-47.769,47.6a6.8,6.8,0,0,0,9.632,9.6l36.138-36.014v79.553a6.834,6.834,0,0,0,13.668-.007V330.684H1322.1a6.78,6.78,0,0,0,6.48-8.869" transform="translate(-1078.904 77.961)" fill="#698df4" opacity="0.1"/>
    <g id="Logo_White" data-name="Logo White" transform="translate(140 347.253)">
      <path id="Tracé_104" data-name="Tracé 104" d="M1498.094,752.887a1.68,1.68,0,0,1,3.358,0,1.681,1.681,0,0,1-3.358,0" transform="translate(-1425.789 -627.771)" fill="#fff"/>
      <path id="Tracé_105" data-name="Tracé 105" d="M1229.453,781.7c0-2.878-1.793-5.1-4.9-5.1a5.092,5.092,0,1,0,4.9,5.1m-12.582,0a7.687,7.687,0,1,1,7.683,7.486,7.254,7.254,0,0,1-7.683-7.486" transform="translate(-1216.871 -644.828)" fill="#fff"/>
      <path id="Tracé_106" data-name="Tracé 106" d="M1290.6,774.556h2.785v2.63a5.253,5.253,0,0,1,5.155-3c3.618,0,5.474,2.041,5.474,5.847v8.784h-2.753v-7.609c0-3.187-1.088-4.7-3.714-4.7-2.754,0-4.162,1.886-4.162,4.763v7.548H1290.6Z" transform="translate(-1271.644 -644.828)" fill="#fff"/>
      <path id="Tracé_107" data-name="Tracé 107" d="M1367.76,780.4c0-2.5-1.6-4.051-4.292-4.051a4.123,4.123,0,0,0-4.481,4.051Zm2.658,2.073h-11.431c.064,2.753,1.824,4.361,4.642,4.361,1.953,0,3.3-.743,3.906-2.1h2.784c-.511,2.631-3.232,4.455-6.69,4.455-4.545,0-7.4-2.907-7.4-7.517,0-4.517,2.882-7.486,7.266-7.486,4.163,0,6.979,2.784,6.979,6.712a14.653,14.653,0,0,1-.061,1.578" transform="translate(-1320.402 -644.828)" fill="#fff"/>
      <path id="Tracé_108" data-name="Tracé 108" d="M1438.277,781.7a4.963,4.963,0,1,0-4.9,5.073,4.827,4.827,0,0,0,4.9-5.073m2.786,0a7.121,7.121,0,0,1-7.3,7.486,5.943,5.943,0,0,1-5.283-2.877v6.516h-2.754V774.556h2.754v2.536a6.06,6.06,0,0,1,5.444-2.906c4.226,0,7.139,3.062,7.139,7.517" transform="translate(-1372.027 -644.828)" fill="#fff"/>
      <rect id="Rectangle_1639" data-name="Rectangle 1639" width="2.753" height="14.261" transform="translate(72.623 129.729)" fill="#fff"/>
      <path id="Tracé_109" data-name="Tracé 109" d="M1524.116,781.792c0-4.423,2.786-7.486,7.332-7.486,3.971,0,6.531,2.1,6.884,5.289h-2.786c-.385-1.886-1.793-2.875-4.13-2.875-2.818,0-4.548,1.886-4.548,5.073,0,3.154,1.73,5.073,4.548,5.073,2.337,0,3.745-.989,4.13-2.783h2.786c-.354,3.125-2.913,5.2-6.884,5.2-4.546,0-7.332-3.062-7.332-7.486" transform="translate(-1445.12 -644.916)" fill="#fff"/>
      <path id="Tracé_110" data-name="Tracé 110" d="M1599.091,768.552l7.14,7.362h-3.65l-6.467-6.743v6.743h-2.754V756.839h2.754v11.374l6.564-6.559h3.553Z" transform="translate(-1496.561 -631.925)" fill="#fff"/>
      <path id="Tracé_111" data-name="Tracé 111" d="M1281.041,292.421l24.729,24.69h-24.729Zm47.534,29.393a6.754,6.754,0,0,0-1.719-2.887l-47.777-47.611-.033-.036a6.832,6.832,0,0,0-9.635,0c-.014.014-.026.029-.039.044l-47.769,47.6a6.8,6.8,0,0,0,9.632,9.6l36.138-36.014v79.553a6.834,6.834,0,0,0,13.668-.007V330.684H1322.1a6.78,6.78,0,0,0,6.48-8.869" transform="translate(-1218.905 -269.292)" fill="#fff"/>
      <path id="Tracé_112" data-name="Tracé 112" d="M1414.229,656.714a4.609,4.609,0,1,1,4.609,4.593,4.6,4.6,0,0,1-4.609-4.593" transform="translate(-1363.486 -554.037)" fill="#ebebeb"/>
      <path id="Tracé_113" data-name="Tracé 113" d="M1414.229,281.645a4.609,4.609,0,1,1,4.609,4.594,4.6,4.6,0,0,1-4.609-4.594" transform="translate(-1363.486 -275.065)" fill="#839df7"/>
      <path id="Tracé_114" data-name="Tracé 114" d="M1599.2,468.667a4.609,4.609,0,1,1,4.609,4.594,4.6,4.6,0,0,1-4.609-4.594" transform="translate(-1500.901 -414.169)" fill="#fb9e43"/>
      <path id="Tracé_115" data-name="Tracé 115" d="M1227.746,468.667a4.609,4.609,0,1,1,4.609,4.594,4.6,4.6,0,0,1-4.609-4.594" transform="translate(-1224.95 -414.169)" fill="#00e187"/>
    </g>
  </g>
</svg>
