<svg xmlns="http://www.w3.org/2000/svg"  viewBox="0 0 103.24 103.24">
  <path id="_0b3ca81493d7e22164f6e1829241c263" data-name="0b3ca81493d7e22164f6e1829241c263" d="M13.73,1.921A144.258,144.258,0,0,1,36.075,0,159.6,159.6,0,0,1,59.109,2.028,14,14,0,0,1,70.975,13.894,136.3,136.3,0,0,1,73,35.849a168.39,168.39,0,0,1-1.918,23.424c-1.605,6.264-5.192,10.236-11.81,11.81A147.367,147.367,0,0,1,36.781,73a156.325,156.325,0,0,1-22.889-2.027C7.012,69.4,3.642,66.568,2.027,59.11A152.649,152.649,0,0,1,0,36.386,150.964,150.964,0,0,1,1.92,13.731C2.8,7.457,7.241,3.265,13.73,1.921Z" transform="translate(51.621) rotate(45)" fill="#3409b7"/>
</svg>
