<?xml version="1.0" encoding="utf-8"?>
<svg version="1.1" id="Layer_1" xmlns="http://www.w3.org/2000/svg" xmlns:xlink="http://www.w3.org/1999/xlink" x="0px" y="0px"
	 viewBox="0 0 30 30" style="enable-background:new 0 0 30 30;" xml:space="preserve">
<style type="text/css">
	.st0{fill:#111C3C;opacity:.7;}
</style>
<path class="st0" d="M25.7,14l-10-9.8c0,0,0,0,0,0c0,0,0,0,0,0c0,0,0,0,0,0c-0.1-0.1-0.2-0.1-0.3-0.2C15.3,4,15.1,4,15,4
	c0,0,0,0,0,0c0,0,0,0,0,0c0,0,0,0,0,0c-0.1,0-0.3,0-0.4,0.1c-0.1,0-0.2,0.1-0.3,0.2c0,0,0,0,0,0c0,0,0,0,0,0c0,0,0,0,0,0L4.3,14
	c-0.4,0.4-0.4,1,0,1.4c0.4,0.4,1,0.4,1.4,0L14,7.4v7.4V25c0,0.6,0.4,1,1,1s1-0.4,1-1v-9.3h9c0.4,0,0.8-0.2,0.9-0.6
	C26.1,14.8,26,14.3,25.7,14z M16,13.8V7.4l6.5,6.4H16z"/>
</svg>
