<svg xmlns="http://www.w3.org/2000/svg" width="60" height="60" viewBox="0 0 60 60">
  <g id="Groupe_1584" data-name="Groupe 1584" transform="translate(-156.069 -619.069)">
    <path id="Union_4" data-name="Union 4" d="M35.851,1.94a100.09,100.09,0,0,1,11.9,10.021,110.734,110.734,0,0,1,10.306,12.3,9.712,9.712,0,0,1,0,11.643,94.572,94.572,0,0,1-9.778,11.765A116.833,116.833,0,0,1,35.851,58.214c-3.861,2.286-7.569,2.475-11.588,0A102.247,102.247,0,0,1,12.287,48.122,108.463,108.463,0,0,1,2.052,35.9c-2.6-4.15-2.867-7.192,0-11.643A105.912,105.912,0,0,1,12.206,12.113,104.743,104.743,0,0,1,24.262,1.94C27.771-.708,32.008-.584,35.851,1.94Z" transform="translate(156.069 619.069)" fill="#3409b7"/>
    <text id="Pick" transform="translate(186.069 655.069)" fill="#fff" font-size="14" font-family="SofiaPro-Regular, Sofia Pro"><tspan x="-12.88" y="0">Pick</tspan></text>
  </g>
</svg>
