<svg xmlns="http://www.w3.org/2000/svg" width="40" height="32" viewBox="0 0 40 32">
  <g id="Clips_icon" data-name="Clips icon" transform="translate(-660.21 -1267.668)">
    <g id="Polygon_1" data-name="Polygon 1" transform="translate(680.274 1277.717)">
      <g id="Groupe_1515" data-name="Groupe 1515" transform="translate(0.01)">
        <path id="Tracé_123" data-name="Tracé 123" d="M682.509,1279.361a1.588,1.588,0,0,1,.294,2.227c-.034.044-.07.086-.109.128a2.008,2.008,0,0,1-.186.171l-5.327,4.281a1.894,1.894,0,0,1-2.529-.172,1.6,1.6,0,0,1-.436-1.091v-8.562a1.735,1.735,0,0,1,1.8-1.669,1.87,1.87,0,0,1,1.174.4Z" transform="translate(-674.217 -1274.672)" fill="#b7bcc9"/>
      </g>
      <g id="Groupe_1516" data-name="Groupe 1516" transform="translate(0 0.001)">
        <path id="Tracé_124" data-name="Tracé 124" d="M676.005,1274.673a1.876,1.876,0,0,1,1.174.4l5.334,4.283a1.587,1.587,0,0,1,.185,2.353,1.849,1.849,0,0,1-.185.173l-5.334,4.281a1.893,1.893,0,0,1-2.533-.172,1.6,1.6,0,0,1-.436-1.09v-8.562A1.735,1.735,0,0,1,676.005,1274.673Z" transform="translate(-674.21 -1274.673)" fill="#b7bcc9"/>
      </g>
    </g>
    <g id="Group_1357" data-name="Group 1357" transform="translate(660.21 1275.549)">
      <g id="Path_35" data-name="Path 35">
        <path id="Tracé_125" data-name="Tracé 125" d="M672.111,1276.19H661.7a1.488,1.488,0,0,1,0-2.975h10.413a1.488,1.488,0,0,1,0,2.975Z" transform="translate(-660.21 -1273.215)" fill="#b7bcc9"/>
      </g>
      <g id="Path_36" data-name="Path 36" transform="translate(2.395 7.142)">
        <path id="Tracé_126" data-name="Tracé 126" d="M669.838,1280.991h-6.53a1.488,1.488,0,1,1,0-2.975h6.53a1.488,1.488,0,0,1,0,2.975Z" transform="translate(-661.82 -1278.016)" fill="#b7bcc9"/>
      </g>
      <g id="Path_37" data-name="Path 37" transform="translate(7.304 13.257)">
        <path id="Tracé_127" data-name="Tracé 127" d="M669.714,1285.1h-3.106a1.488,1.488,0,0,1,0-2.975h3.106a1.488,1.488,0,0,1,0,2.975Z" transform="translate(-665.12 -1282.127)" fill="#b7bcc9"/>
      </g>
    </g>
    <g id="Path_117" data-name="Path 117" transform="translate(673.597 1267.668)">
      <path id="Tracé_128" data-name="Tracé 128" d="M680.154,1299.668c-.168,0-.335,0-.5-.009h-.037a16.2,16.2,0,0,1-9.841-3.4,1.473,1.473,0,0,1-.273-2.037,1.405,1.405,0,0,1,2-.281,13.414,13.414,0,0,0,8.171,2.807h.027a13.1,13.1,0,0,0,.86-26.172c-.273-.008-.541-.008-.811,0h-.026a13.438,13.438,0,0,0-8.222,2.809,1.405,1.405,0,0,1-2-.281,1.474,1.474,0,0,1,.273-2.037,16.244,16.244,0,0,1,9.893-3.4h.033c.285-.01.617-.009.944,0a16.008,16.008,0,0,1-.489,31.992Z" transform="translate(-669.209 -1267.668)" fill="#b7bcc9"/>
    </g>
  </g>
</svg>
