<svg xmlns="http://www.w3.org/2000/svg" width="40" height="40" viewBox="0 0 40 40">
  <g id="Icon_ionic-md-photos" data-name="Icon ionic-md-photos" transform="translate(10.132 -2.635)">
    <path id="Tracé_23" data-name="Tracé 23" d="M36.19,36.7V11.855a3.99,3.99,0,0,0-3.981-3.98H7.356a3.99,3.99,0,0,0-3.981,3.98V36.711a3.99,3.99,0,0,0,3.981,3.98H32.219A4,4,0,0,0,36.19,36.7ZM13.564,25.769l4.223,5.965,6.218-8.947,8.2,11.929H7.356Z" transform="translate(-13.507 1.945)" fill="#b7bcc9"/>
    <path id="Tracé_24" data-name="Tracé 24" d="M38.679,3.375H12.128A4.247,4.247,0,0,0,7.875,7.6v.524H33.9a4.247,4.247,0,0,1,4.253,4.22V38.166h.528a4.247,4.247,0,0,0,4.253-4.22V7.6A4.247,4.247,0,0,0,38.679,3.375Z" transform="translate(-13.063 -0.74)" fill="#b7bcc9"/>
  </g>
</svg>
