<svg xmlns="http://www.w3.org/2000/svg" width="32" height="40" viewBox="0 0 32 40">
  <path id="Soustraction_22" data-name="Soustraction 22" d="M0,40v0L0,3.75A3.885,3.885,0,0,1,4,0H28a3.886,3.886,0,0,1,4,3.75V40L16,31.249,0,40ZM10.979,9.828a5.061,5.061,0,0,0-3.2,1.095A4.916,4.916,0,0,0,7.4,18.352l7.376,7.14a1.252,1.252,0,0,0,1.727,0l7.375-7.14a4.912,4.912,0,0,0-.373-7.429,5.059,5.059,0,0,0-3.2-1.095A5.682,5.682,0,0,0,16.4,11.409l-.751.725-.751-.725A5.67,5.67,0,0,0,10.979,9.828Z" fill="#b7bcc9"/>
</svg>
