<svg width="28" height="20" viewBox="0 0 28 20" fill="none" xmlns="http://www.w3.org/2000/svg">
<path d="M21.8021 10.2854C21.8021 10.8379 22.25 11.2857 22.8024 11.2857C23.3548 11.2857 23.8026 10.8379 23.8026 10.2854H21.8021ZM22.8074 10.0004L21.8071 10.0003V10.0004H22.8074ZM6.7204 3.42065C6.34991 3.83042 6.38176 4.46295 6.79153 4.83343C7.2013 5.20391 7.83383 5.17207 8.20431 4.76229L6.7204 3.42065ZM6.19356 9.71436C6.19356 9.16193 5.74573 8.71411 5.19331 8.71411C4.64089 8.71411 4.19306 9.16193 4.19306 9.71436H6.19356ZM5.18831 9.99939L6.18856 9.99945V9.99939H5.18831ZM21.2753 16.5791C21.6458 16.1694 21.6139 15.5369 21.2042 15.1664C20.7944 14.7959 20.1619 14.8277 19.7914 15.2375L21.2753 16.5791ZM0.859931 13.0097C0.543389 13.4624 0.653799 14.0861 1.10654 14.4026C1.55928 14.7192 2.1829 14.6087 2.49944 14.156L0.859931 13.0097ZM4.85261 9.04474L5.42586 8.22505C5.20845 8.073 4.93954 8.01356 4.67829 8.05979C4.41705 8.10603 4.18487 8.25415 4.03285 8.47159L4.85261 9.04474ZM8.81649 13.0375C9.26919 13.3541 9.89283 13.2438 10.2094 12.7911C10.526 12.3384 10.4157 11.7147 9.963 11.3981L8.81649 13.0375ZM27.1396 6.98746C27.4561 6.53472 27.3457 5.91109 26.893 5.59455C26.4403 5.27801 25.8166 5.38842 25.5001 5.84116L27.1396 6.98746ZM23.1469 10.9524L22.5734 11.7719C22.7908 11.9241 23.0597 11.9836 23.3211 11.9374C23.5824 11.8912 23.8146 11.7431 23.9667 11.5256L23.1469 10.9524ZM19.1828 6.95692C18.7303 6.64014 18.1066 6.75023 17.7898 7.20281C17.473 7.65539 17.5831 8.27907 18.0357 8.59584L19.1828 6.95692ZM23.8026 10.2854C23.8026 10.2533 23.8035 10.219 23.8048 10.1693C23.806 10.124 23.8076 10.0633 23.8076 10.0004H21.8071C21.8071 10.0325 21.8063 10.0669 21.805 10.1166C21.8038 10.1619 21.8021 10.2226 21.8021 10.2854H23.8026ZM23.8076 10.0005C23.8078 8.01806 23.2073 6.08222 22.0853 4.44787L20.436 5.58005C21.3292 6.88115 21.8072 8.42223 21.8071 10.0003L23.8076 10.0005ZM22.0853 4.44787C20.9634 2.81353 19.3727 1.55732 17.5227 0.844928L16.8038 2.7118C18.2765 3.2789 19.5429 4.27894 20.436 5.58005L22.0853 4.44787ZM17.5227 0.844928C15.6727 0.132532 13.6503 -0.00252962 11.722 0.457243L12.186 2.40319C13.7211 2.03716 15.3312 2.1447 16.8038 2.7118L17.5227 0.844928ZM11.722 0.457243C9.79368 0.917024 8.0499 1.95016 6.7204 3.42065L8.20431 4.76229C9.26269 3.59169 10.6509 2.76922 12.186 2.40319L11.722 0.457243ZM4.19306 9.71436C4.19306 9.74644 4.19222 9.78048 4.19091 9.83009C4.18971 9.87545 4.18806 9.93604 4.18806 9.99939H6.18856C6.18856 9.96673 6.18941 9.93231 6.19071 9.8829C6.1919 9.83775 6.19356 9.77727 6.19356 9.71436H4.19306ZM4.18806 9.99933C4.18793 11.9817 4.78844 13.9176 5.91035 15.5519L7.55965 14.4198C6.66649 13.1186 6.18846 11.5776 6.18856 9.99945L4.18806 9.99933ZM5.91035 15.5519C7.03226 17.1863 8.62297 18.4425 10.473 19.1549L11.1919 17.288C9.71916 16.7209 8.4528 15.7209 7.55965 14.4198L5.91035 15.5519ZM10.473 19.1549C12.3229 19.8672 14.3453 20.0025 16.2736 19.5427L15.8096 17.5967C14.2745 17.9628 12.6646 17.8551 11.1919 17.288L10.473 19.1549ZM16.2736 19.5427C18.202 19.0829 19.9458 18.0496 21.2753 16.5791L19.7914 15.2375C18.733 16.4081 17.3447 17.2307 15.8096 17.5967L16.2736 19.5427ZM2.49944 14.156L5.67237 9.61788L4.03285 8.47159L0.859931 13.0097L2.49944 14.156ZM4.27935 9.86442L8.81649 13.0375L9.963 11.3981L5.42586 8.22505L4.27935 9.86442ZM25.5001 5.84116L22.3272 10.3793L23.9667 11.5256L27.1396 6.98746L25.5001 5.84116ZM23.7205 10.133L19.1828 6.95692L18.0357 8.59584L22.5734 11.7719L23.7205 10.133Z" fill="white"/>
</svg>
