<svg xmlns="http://www.w3.org/2000/svg" width="14" height="14" viewBox="0 0 14 14">
  <g id="Groupe_1631" data-name="Groupe 1631" transform="translate(-17.891 -5.932)">
    <path id="Union_59" data-name="Union 59" d="M8.365.452a23.354,23.354,0,0,1,2.778,2.338,25.838,25.838,0,0,1,2.4,2.869,2.266,2.266,0,0,1,0,2.717,22.067,22.067,0,0,1-2.282,2.745,27.261,27.261,0,0,1-2.9,2.462,2.4,2.4,0,0,1-2.7,0,23.858,23.858,0,0,1-2.794-2.355A25.308,25.308,0,0,1,.479,8.376a2.167,2.167,0,0,1,0-2.717A24.713,24.713,0,0,1,2.848,2.826,24.44,24.44,0,0,1,5.661.452,2.245,2.245,0,0,1,8.365.452Z" transform="translate(17.891 5.932)" fill="#b7bcc9"/>
    <g id="Icon_feather-arrow-up" data-name="Icon feather-arrow-up" transform="translate(21.04 9.081)">
      <path id="Tracé_19" data-name="Tracé 19" d="M18,15.2V7.5" transform="translate(-14.149 -7.5)" fill="none" stroke="#fff" stroke-linecap="round" stroke-linejoin="round" stroke-width="1"/>
      <path id="Tracé_20" data-name="Tracé 20" d="M7.5,11.339,11.351,7.5,15.2,11.339" transform="translate(-7.5 -7.5)" fill="none" stroke="#fff" stroke-linecap="round" stroke-linejoin="round" stroke-width="1"/>
    </g>
  </g>
</svg>
