<svg id="Add_icon" data-name="Add icon" xmlns="http://www.w3.org/2000/svg"  viewBox="0 0 44 44">
  <path id="Union_4" data-name="Union 4" d="M26.291,1.422a73.4,73.4,0,0,1,8.73,7.349,81.205,81.205,0,0,1,7.558,9.016,7.122,7.122,0,0,1,0,8.538,69.353,69.353,0,0,1-7.171,8.628,85.678,85.678,0,0,1-9.117,7.737,7.55,7.55,0,0,1-8.5,0,74.981,74.981,0,0,1-8.782-7.4A79.54,79.54,0,0,1,1.5,26.326c-1.907-3.044-2.1-5.274,0-8.538a77.669,77.669,0,0,1,7.446-8.9,76.811,76.811,0,0,1,8.842-7.461C20.365-.519,23.472-.428,26.291,1.422Z" transform="translate(0 0)" fill="#3409b7"/>
  <g id="Groupe_1512" data-name="Groupe 1512" transform="translate(-173.5 -778.5)">
    <path id="Tracé_118" data-name="Tracé 118" d="M188.046,800h14" transform="translate(0.454 0.5)" fill="none" stroke="#fff" stroke-linecap="round" stroke-width="2"/>
    <path id="Tracé_119" data-name="Tracé 119" d="M188.046,800h14" transform="translate(995.5 605.454) rotate(90)" fill="none" stroke="#fff" stroke-linecap="round" stroke-width="2"/>
  </g>
</svg>
