<svg xmlns="http://www.w3.org/2000/svg" width="27.687" height="22" viewBox="0 0 27.687 22">
  <g id="Clips_icon" data-name="Clips icon" transform="translate(1 1)">
    <g id="Polygon_1" data-name="Polygon 1" transform="translate(-549 -1204.832)" fill="none" stroke-linecap="round">
      <path d="M567.581,1213.983a1.068,1.068,0,0,1,.125,1.583,1.286,1.286,0,0,1-.125.115L564,1218.559a1.272,1.272,0,0,1-1.7-.116,1.075,1.075,0,0,1-.293-.733v-5.756a1.167,1.167,0,0,1,1.207-1.122,1.265,1.265,0,0,1,.789.272Z" stroke="none"/>
      <path d="M 563.2070922851562 1210.83203125 C 563.4967651367188 1210.83203125 563.7770385742188 1210.928833007812 563.996337890625 1211.1044921875 L 567.5814819335938 1213.98291015625 C 568.0865478515625 1214.38818359375 568.1422119140625 1215.096557617188 567.7063598632812 1215.565795898438 C 567.6676635742188 1215.6064453125 567.626220703125 1215.645263671875 567.5814819335938 1215.681274414062 L 563.996337890625 1218.55908203125 C 563.4917602539062 1218.964477539062 562.7291870117188 1218.911987304688 562.29345703125 1218.443359375 C 562.1041870117188 1218.239868164062 562 1217.979736328125 562 1217.71044921875 L 562 1211.954223632812 C 562 1211.334594726562 562.5404663085938 1210.83203125 563.2070922851562 1210.83203125 Z" stroke="none" fill="#111c3c"/>
    </g>
    <g id="Group_1357" data-name="Group 1357" transform="translate(0 5.542)">
      <path id="Path_35" data-name="Path 35" d="M543.152,1212.143h7" transform="translate(-543.152 -1212.143)" fill="none" stroke="#111c3c" stroke-linecap="round" stroke-width="2"/>
      <path id="Path_36" data-name="Path 36" d="M547.4,1218.745h4.39" transform="translate(-545.79 -1213.944)" fill="none" stroke="#111c3c" stroke-linecap="round" stroke-width="2"/>
      <path id="Path_37" data-name="Path 37" d="M551.6,1224.4h2.088" transform="translate(-546.69 -1215.488)" fill="none" stroke="#111c3c" stroke-linecap="round" stroke-width="2"/>
    </g>
    <path id="Tracé_117" data-name="Tracé 117" d="M556.143,1220.14a10.484,10.484,0,0,0,6.361,2.134,10.005,10.005,0,1,0,0-20,10.484,10.484,0,0,0-6.361,2.134" transform="translate(-547.143 -1202.274)" fill="none" stroke="#111c3c" stroke-linecap="round" stroke-width="2"/>
  </g>
</svg>
