<svg xmlns="http://www.w3.org/2000/svg" width="26.589" height="23.5" viewBox="0 0 26.589 23.5">
  <g id="Icon_awesome-comment" data-name="Icon awesome-comment" transform="translate(1.018 1)">
    <path id="Icon_awesome-comment-2" data-name="Icon awesome-comment" d="M12.286,2.25C5.5,2.25,0,6.718,0,12.232A8.86,8.86,0,0,0,2.735,18.5a12.209,12.209,0,0,1-2.63,4.6.382.382,0,0,0-.072.418.376.376,0,0,0,.35.23,10.975,10.975,0,0,0,6.748-2.467,14.636,14.636,0,0,0,5.154.931c6.786,0,12.286-4.468,12.286-9.982S19.072,2.25,12.286,2.25Z" transform="translate(0 -2.25)" fill="none" stroke="#fff" stroke-width="2"/>
  </g>
</svg>
