<svg width="40" height="40" viewBox="0 0 140 140" fill="none" xmlns="http://www.w3.org/2000/svg">
  <path
    d="M83.6572 4.52205C93.5082 11.584 102.795 19.4021 111.432 27.9058C120.13 36.8744 128.167 46.4622 135.478 56.5937C138.414 60.5139 140 65.2796 140 70.1772C140 75.0747 138.414 79.8405 135.478 83.7607C128.627 93.513 120.997 102.694 112.663 111.214C103.58 120.086 93.8874 128.312 83.6572 135.832C79.6706 138.548 74.959 140 70.1356 140C65.3123 140 60.6006 138.548 56.614 135.832C46.7124 128.71 37.3716 120.838 28.6737 112.286C20.0213 103.378 12.0363 93.8447 4.78344 83.7639C-1.28377 74.0782 -1.89781 66.9826 4.78344 56.5969C11.9629 46.5797 19.8816 37.1137 28.4732 28.278C37.2403 19.6687 46.644 11.7328 56.6045 4.53796C64.8033 -1.654 74.6884 -1.36445 83.6572 4.52205Z"
    fill="#B7BCC9" />
</svg>
