<svg xmlns="http://www.w3.org/2000/svg" width="27.006" height="23.05" viewBox="0 0 27.006 23.05">
  <g id="Icon_ionic-ios-share-alt" data-name="Icon ionic-ios-share-alt" transform="translate(1.006 1)">
    <path id="Icon_ionic-ios-share-alt-2" data-name="Icon ionic-ios-share-alt" d="M29.28,15.57,20.1,6.907a.468.468,0,0,0-.365-.158c-.286.013-.651.217-.651.525V11.62a.28.28,0,0,1-.234.269C9.714,13.3,5.867,20.191,4.507,27.344c-.052.282.325.545.5.322,3.333-4.233,7.388-7,13.8-7.048a.324.324,0,0,1,.273.315V25.2a.558.558,0,0,0,.944.348l9.249-8.814a.728.728,0,0,0,.228-.551A.884.884,0,0,0,29.28,15.57Z" transform="translate(-4.502 -6.749)" fill="none" stroke="#fff" stroke-width="2"/>
  </g>
</svg>
